# xmcd CD database file
#
# Track frame offsets:
#	150
#	21595
#	41310
#	57645
#	82305
#	104472
#	135610
#
# Disc length: 2093 seconds
#
# Revision: 0
# Processed by: cddbd v1.5PL3 Copyright (c) Steve Scherf et al.
# Submitted via: CDex 1.51
#
DISCID=63082b07
DTITLE=浜崎あゆみ - No way to say
DYEAR=1900
DGENRE=JPop
TTITLE0=No way to say ''Original Mix''
TTITLE1=No way to say ''Acoustic Version''
TTITLE2=SEASONS ''Acoustic Version''
TTITLE3=Dearest ''Acoustic Orchestra Version''
TTITLE4=Voyage ''Acoustic Orchestra Version''
TTITLE5=No way to say ''Vandalize - Realize Mix''
TTITLE6=No way to say ''Original Mix'' -Instrumental-
EXTD=
EXTT0=
EXTT1=
EXTT2=
EXTT3=
EXTT4=
EXTT5=
EXTT6=
PLAYORDER=
